<?xml version="1.0" encoding="utf-8"?>
<!-- Generator: Adobe Illustrator 24.0.2, SVG Export Plug-In . SVG Version: 6.00 Build 0)  -->
<svg version="1.1" id="Layer_1" xmlns="http://www.w3.org/2000/svg" xmlns:xlink="http://www.w3.org/1999/xlink" x="0px" y="0px"
	 viewBox="0 0 1051.35 251.27" style="enable-background:new 0 0 1051.35 251.27;" xml:space="preserve">
<style type="text/css">
	.st0{fill:#30302F;}
	.st1{fill:#2D3277;}
	.st2{fill:#211F1F;}
	.st3{fill:#FFC400;}
	.st4{fill:#FFFFFF;}
	.st5{fill:#333333;}
</style>
<g>
	<rect x="565.76" y="21.13" class="st0" width="1.56" height="131.22"/>
	<g>
		<path class="st1" d="M518.75,43.89c-3.4-4.26-8.55-6.39-15.48-6.39c-6.91,0-12.07,2.13-15.47,6.39c-3.4,4.26-5.1,9.28-5.1,15.09
			c0,5.9,1.7,10.95,5.1,15.15c3.4,4.19,8.55,6.29,15.47,6.29c6.92,0,12.08-2.1,15.48-6.29c3.4-4.2,5.1-9.25,5.1-15.15
			C523.85,53.17,522.15,48.14,518.75,43.89 M510.33,68.31c-1.65,2.19-4.01,3.28-7.09,3.28c-3.08,0-5.45-1.09-7.11-3.28
			c-1.66-2.19-2.49-5.3-2.49-9.33c0-4.03,0.83-7.13,2.49-9.31c1.66-2.17,4.03-3.26,7.11-3.26c3.08,0,5.44,1.09,7.09,3.26
			c1.65,2.18,2.47,5.28,2.47,9.31C512.81,63.01,511.98,66.12,510.33,68.31"/>
		<path class="st1" d="M431.92,40.33c-3.44-1.75-7.39-2.63-11.83-2.63c-6.82,0-11.63,1.78-14.44,5.33
			c-1.76,2.28-2.75,5.18-2.98,8.71h10.19c0.25-1.56,0.75-2.79,1.5-3.71c1.05-1.23,2.84-1.85,5.36-1.85c2.26,0,3.96,0.31,5.13,0.95
			c1.16,0.63,1.75,1.77,1.75,3.42c0,1.36-0.76,2.36-2.28,3c-0.85,0.37-2.25,0.68-4.22,0.93l-3.61,0.45c-4.1,0.52-7.22,1.38-9.33,2.6
			c-3.86,2.22-5.79,5.81-5.79,10.78c0,3.82,1.19,6.78,3.6,8.87c2.39,2.09,5.44,2.96,9.11,3.13c23.05,1.03,22.79-12.14,23-14.88
			V50.26C437.09,45.4,435.37,42.08,431.92,40.33 M426.57,63.34c-0.07,3.53-1.08,5.96-3.03,7.3c-1.94,1.33-4.07,2-6.37,2
			c-1.46,0-2.69-0.4-3.71-1.21c-1.01-0.8-1.52-2.11-1.52-3.91c0-2.02,0.83-3.52,2.49-4.48c0.99-0.57,2.6-1.05,4.86-1.44l2.41-0.45
			c1.2-0.23,2.14-0.47,2.83-0.73c0.7-0.25,1.37-0.59,2.05-1.01V63.34z"/>
		<path class="st1" d="M379.37,46.73c2.63,0,4.57,0.81,5.82,2.44c0.86,1.2,1.39,2.56,1.6,4.07h11.37
			c-0.62-5.73-2.63-9.74-6.02-12.01c-3.4-2.26-7.75-3.4-13.08-3.4c-6.26,0-11.18,1.92-14.73,5.76c-3.56,3.85-5.34,9.22-5.34,16.12
			c0,6.12,1.61,11.1,4.83,14.94c3.22,3.84,8.25,5.76,15.08,5.76c6.84,0,12-2.3,15.48-6.91c2.18-2.85,3.4-5.88,3.66-9.09h-11.33
			c-0.23,2.12-0.89,3.85-1.99,5.17c-1.09,1.32-2.93,1.99-5.54,1.99c-3.67,0-6.17-1.67-7.5-5.03c-0.73-1.79-1.09-4.16-1.09-7.1
			c0-3.09,0.37-5.57,1.09-7.45C373.07,48.5,375.63,46.73,379.37,46.73"/>
		<path class="st1" d="M355.95,37.83c-23.35,0-21.97,20.68-21.97,20.68v21h10.6v-19.7c0-3.23,0.41-5.62,1.22-7.17
			c1.45-2.75,4.29-4.14,8.53-4.14c0.32,0,0.74,0.02,1.26,0.04c0.51,0.02,1.1,0.07,1.78,0.15V37.91c-0.47-0.03-0.78-0.04-0.91-0.06
			C356.31,37.84,356.15,37.83,355.95,37.83"/>
		<path class="st1" d="M317.02,68.54c-0.45,0.64-0.92,1.18-1.45,1.6c-1.5,1.23-3.53,1.61-5.92,1.61c-2.27,0-4.04-0.34-5.64-1.35
			c-2.64-1.63-4.13-4.38-4.29-8.41h29.32c0.04-3.47-0.07-6.14-0.35-7.99c-0.49-3.15-1.56-5.93-3.21-8.32
			c-1.83-2.71-4.15-4.7-6.96-5.96c-2.81-1.25-5.96-1.88-9.46-1.88c-5.9,0-10.7,1.86-14.4,5.58c-3.7,3.73-5.55,9.07-5.55,16.04
			c0,7.44,2.05,12.82,6.15,16.12c4.09,3.3,8.83,4.95,14.18,4.95c6.49,0,11.54-1.96,15.14-5.87c1.94-2.06,3.16-4.1,3.68-6.11H317.02z
			 M302.78,48.8c1.49-1.53,3.58-2.3,6.28-2.3c2.49,0,4.57,0.72,6.25,2.17c1.67,1.44,2.61,3.57,2.8,6.36h-18.13
			C300.35,52.41,301.29,50.34,302.78,48.8"/>
		<path class="st1" d="M284.86,79.51h-9.68V55.13c0-2.23-0.73-7.52-7.12-7.52c-4.26,0-7.34,3.07-7.34,7.52v24.37h-9.69V55.13
			c0-2.23-0.66-7.52-7.04-7.52c-4.33,0-7.34,3.07-7.34,7.52v24.37h-9.68V55.36c0-10.06,6.67-17.67,17.03-17.67
			c5.14,0,9.32,2.16,12.04,5.61c2.86-3.46,7.11-5.61,12.03-5.61c10.57,0,16.8,7.3,16.8,17.67V79.51z"/>
		<path class="st1" d="M479.56,25.1c0,0-10.67-1.14-10.67,7.43l-0.01,11.35c-1.18-1.9-2.72-3.38-4.62-4.45
			c-1.89-1.07-4.06-1.61-6.5-1.61c-5.29,0-9.51,1.97-12.68,5.91c-3.17,3.94-4.74,9.62-4.74,16.49c0,5.96,1.61,10.84,4.82,14.65
			c3.21,3.8,9.51,5.47,15.11,5.47c19.51,0,19.29-16.73,19.29-16.73L479.56,25.1z M466.85,68.39c-1.55,2.22-3.82,3.33-6.79,3.33
			c-2.98,0-5.2-1.12-6.66-3.34c-1.46-2.23-2.2-5.48-2.2-9.19c0-3.45,0.71-6.34,2.16-8.66c1.44-2.32,3.69-3.49,6.77-3.49
			c2.02,0,3.79,0.64,5.32,1.92c2.48,2.12,3.73,5.92,3.73,10.84C469.17,63.31,468.4,66.18,466.85,68.39"/>
		<path class="st1" d="M358.11,130.15c-0.44,0.63-0.92,1.17-1.44,1.59c-1.49,1.22-3.58,1.67-5.95,1.67c-2.24,0-4-0.34-5.59-1.34
			c-2.62-1.61-4.02-4.42-4.18-8.42h29.06c0.04-3.44-0.07-6.08-0.35-7.92c-0.49-3.13-1.55-5.88-3.18-8.25
			c-1.82-2.69-4.12-4.66-6.9-5.9c-2.78-1.24-5.91-1.87-9.38-1.87c-5.85,0-10.6,1.84-14.27,5.53c-3.66,3.69-5.5,8.99-5.5,15.9
			c0,7.38,2.03,12.71,6.09,15.97c4.06,3.28,8.75,4.91,14.05,4.91c6.43,0,11.43-1.94,15-5.82c1.93-2.04,3.14-4.06,3.65-6.06H358.11z
			 M343.99,110.59c1.48-1.52,3.55-2.28,6.22-2.28c2.46,0,4.53,0.72,6.19,2.15c1.66,1.43,2.59,3.53,2.78,6.3h-17.98
			C341.59,114.17,342.52,112.11,343.99,110.59"/>
		<path class="st1" d="M285.29,99.8c-2.44,0-4.6,0.53-6.5,1.6c-1.9,1.07-3.43,2.55-4.62,4.45V86.79c0,0-10.67-1.06-10.67,7.62v30.89
			c0,0-0.22,16.74,19.29,16.74c5.6,0,11.9-1.67,15.11-5.47c3.21-3.8,4.82-8.68,4.82-14.64c0-6.87-1.58-12.27-4.75-16.21
			C294.81,101.76,290.58,99.8,285.29,99.8 M289.66,130.06c-1.47,2.23-3.69,3.34-6.67,3.34c-2.98,0-5.25-1.1-6.8-3.32
			c-1.55-2.22-2.32-5.08-2.32-8.61c0-4.92,1.24-8.44,3.73-10.56c1.53-1.27,3.3-1.92,5.32-1.92c3.08,0,5.34,1.16,6.78,3.49
			c1.44,2.32,2.16,5.21,2.16,8.65C291.86,124.86,291.13,127.83,289.66,130.06"/>
		<path class="st1" d="M328.42,99.75c-0.14-0.01-0.3-0.02-0.5-0.02c-23.36,0-21.97,20.67-21.97,20.67v20.68h10.6v-19.38
			c0-3.23,0.4-5.62,1.22-7.17c1.45-2.75,4.29-4.14,8.53-4.14c0.33,0,0.74,0.01,1.25,0.04c0.52,0.02,1.11,0.07,1.78,0.15V99.81
			C328.86,99.78,328.56,99.76,328.42,99.75"/>
		<path class="st1" d="M226.96,94.37v46.64h9.94V86.76C236.91,86.76,226.96,86.36,226.96,94.37"/>
		<rect x="245.04" y="86.69" class="st1" width="10.64" height="10.54"/>
		<rect x="245.04" y="100.83" class="st1" width="10.67" height="40.25"/>
		<path class="st2" d="M783.45,62.63c-22.61,0-42.26,18.43-42.26,41.4c0,17.36,12.46,29.37,32.24,29.37
			c16.79,0,27.89-10.01,27.89-10.01l-3.66-10.29c0,0-10.29,9.08-23.01,9.08c-12.2,0-20.05-7.88-20.05-19.1
			c0-16.29,14.08-29.24,29.52-29.24c11.37,0,17.88,6.95,17.88,6.95l7.32-8.41C809.32,72.39,801.46,62.63,783.45,62.63"/>
		<path class="st2" d="M846.27,62.63c-14.5,0-25.87,7.08-25.87,7.08l3.53,10.27c0,0,9.88-6.4,20.44-6.4
			c9.22,0,12.33,4.27,12.33,10.55c0,1.2,0,2.81-0.54,5.47h-3.39c-18.55,0-45.63,4.81-45.63,26.7c0,10.95,9.62,17.09,20.45,17.09
			c15.57,0,23.97-13.75,23.83-13.75h0.27c-0.13,0-0.94,2.27-1.49,5.34l-1.35,6.81h12.18l8.26-41.66c0.55-2.54,0.82-5.34,0.82-7.48
			C870.1,68.11,859.4,62.63,846.27,62.63 M853.98,101.62c-2.43,10.01-11.51,21.37-22.48,21.37c-7.57,0-10.96-4.14-10.96-8.82
			c0-13.75,20.98-14.82,30.6-14.82h3.39L853.98,101.62z"/>
		<path class="st2" d="M927.04,63.7c-0.81-0.14-2.3-0.27-4.07-0.27c-10.83,0-20.17,8.41-24.77,18.03h-0.14c0,0,0.82-2.67,1.36-5.48
			l2.43-11.75h-12.73l-13.27,67.56h13.12l4.75-24.57c3.11-15.75,14.49-31.1,27.08-31.1c1.62,0,2.71,0.13,3.66,0.4L927.04,63.7z"/>
		<path class="st2" d="M972.31,63.7c-0.82-0.14-2.31-0.27-4.07-0.27c-10.83,0-20.17,8.41-24.78,18.03h-0.13c0,0,0.81-2.67,1.36-5.48
			l2.43-11.75h-12.73l-13.27,67.56h13.14l4.73-24.57c3.11-15.75,14.49-31.1,27.09-31.1c1.62,0,2.71,0.13,3.65,0.4L972.31,63.7z"/>
		<path class="st2" d="M1009.99,62.63c-21.51,0-42.37,17.76-42.37,41c0,17.62,13.4,29.77,32.62,29.77
			c21.13,0,42.25-17.76,42.25-41.26C1042.49,74.65,1029.09,62.63,1009.99,62.63 M1000.39,122.18c-11.37,0-19.37-7.75-19.37-19.1
			c0-16.55,14.36-29.24,28.84-29.24c11.24,0,19.23,7.75,19.23,18.96C1029.09,109.5,1014.47,122.18,1000.39,122.18"/>
		<path class="st2" d="M638.34,104.56c0-0.45,0.1-1.29,0.27-2.53l4.06-20.96h8.11l8.36-9.11l-4.71-8.91h-8.11l3.66-18.56h-22.75
			l-3.66,18.56h-9.62l-3.66,18.03h8.94l-4.74,24.03c-0.45,2.4-0.68,4.41-0.68,6.01c0,4.19,0.96,7.77,2.85,10.74
			c1.89,2.99,4.38,5.19,7.45,6.61c3.07,1.43,6.04,2.45,8.94,3.08c2.89,0.62,5.78,0.93,8.66,0.93c2.53,0,4.7-0.13,6.5-0.4l3.92-20.16
			l-3.79,0.27C641.69,112.17,638.34,109.63,638.34,104.56"/>
		<path class="st2" d="M716.18,63.03l-6.09,30.44c-1,4.99-3.23,9.38-6.71,13.22c-3.47,3.82-7.41,5.74-11.83,5.74h-0.02
			c-3.88-0.01-5.82-2.05-5.82-6.14c0-0.89,0.09-1.88,0.28-2.94l6.08-30.57c0.18-1.26,0.27-2.09,0.27-2.54c0-4.8-2.97-7.21-8.93-7.21
			h-20.99l4.84,8.91l-8.26,9.11h5.15c1.54,0,2.36,0.88,1.92,3.48c-0.06,0.35-0.09,0.97-0.28,1.87l-3.79,19.49
			c-0.52,2.92-0.79,5.54-0.8,7.89c0,0.04-0.01,0.08-0.01,0.12v0.04v0.09c0,0.11,0.01,0.21,0.01,0.32c0,0.44,0.02,0.87,0.05,1.3
			c0.3,5.53,2.09,9.79,5.42,12.8c3.66,3.3,8.33,4.95,14.02,4.95c0.34,0,0.68-0.02,1.02-0.03c0.47,0.02,0.94,0.03,1.42,0.03
			c9.61,0,18.55-5.74,22.47-11.88h0.27c0,0-1.09,3.34-1.76,6.81l-0.68,3.47h22.61l13.54-68.76H716.18L716.18,63.03z"/>
		<g>
			<path class="st1" d="M197.95,82.79c0-33.87-42.08-61.48-93.99-61.48c-51.91,0-93.99,27.61-93.99,61.48c0,0.87-0.01,3.29-0.01,3.6
				c0,35.93,36.78,65.03,93.99,65.03c57.56,0,94.01-29.09,94.01-65.03C197.95,85.14,197.95,84.42,197.95,82.79z"/>
			<path class="st3" d="M194.35,82.76c0,31.93-40.46,57.82-90.38,57.82c-49.92,0-90.38-25.89-90.38-57.82
				c0-31.93,40.46-57.82,90.38-57.82C153.88,24.94,194.35,50.83,194.35,82.76z"/>
			<g>
				<path class="st4" d="M191.73,102.41c-4.35,9.33-8.71,13.77-8.71,13.77c-1.92-3.69-2.06-5.67-4.15-6.43
					c-3.04-1.11-4.19,0.47-14.18,1.8c-15.82,2.11-22.69,2.72-50.21,0.27c-19.94-1.77-6.56-23.15-2-34.6
					c4.56-11.45,9.34-21.61,12.03-27.42c2.7-5.81,6.02-11.56,10.58-16.47c4.56-4.9,12.45-12.79,14.73-14.65
					c2.28-1.86,6.22,1.24,7.68,2.49c1.45,1.24,10.18,5.17,7.36,9.02c0,0-1.35,2.34-2.49,3.14c-1.14,0.8,6.43-2.31,6.43,2.15
					c0,4.46-6.95,3.73-8.92,4.56c-1.97,0.83-3.94,0.83-6.12,1.97c-2.18,1.14-5.76,2.59-8.58,2.49c-2.83-0.1-3.86-1.56-5.32,2.18
					c-1.45,3.73-5.08,12.24-4.46,20.85c0.62,8.61-0.14,20.22-1.8,24.47c0,0,35.4-15.97,62.58-10.68
					C196.18,81.33,195.1,95.2,191.73,102.41"/>
				<path class="st1" d="M195.99,83.73c0.01-1.32,0.01-2.71,0.09-4.11c-7.98-1.49-21.61-2.03-41.82,3.46
					c-8.02,2.18-14.54,4.62-18.19,6.08c1.14-5.82,1.46-15.04,0.97-21.75c-0.55-7.67,2.43-15.26,4.04-19.34l0.31-0.79
					c0.49-1.26,0.79-1.48,0.77-1.48h0c0.14-0.03,0.6,0.05,0.94,0.12c0.53,0.09,1.2,0.21,1.99,0.24c3.73,0.14,8.15-2.01,9.41-2.68
					c1.05-0.55,2.08-0.8,3.17-1.06c0.91-0.22,1.85-0.44,2.83-0.85c0.31-0.13,1.19-0.24,1.96-0.34c2.79-0.35,7.98-1.01,7.98-5.75
					c0-1.66-0.74-2.61-1.36-3.12c-0.85-0.7-1.93-0.96-3-1c0.06-0.11,0.12-0.2,0.16-0.26c0.71-1.01,0.97-2.15,0.74-3.31
					c-0.6-3.05-4.46-5.41-7.02-6.97c-0.57-0.35-1.21-0.74-1.4-0.9c-5.19-4.45-8.2-3.82-9.8-2.51c-2.37,1.94-10.4,9.98-14.89,14.81
					c-4.12,4.42-7.57,9.79-10.87,16.9l-0.49,1.06c-2.72,5.84-7.26,15.62-11.58,26.45c-0.67,1.68-1.54,3.6-2.47,5.64
					c-3.88,8.53-8.71,19.14-4.86,25.74c1.85,3.17,5.46,5.01,10.73,5.48c27.66,2.46,34.59,1.85,50.57-0.28
					c4.28-0.57,6.93-1.18,8.87-1.62c2.61-0.6,3.27-0.72,4.52-0.26c0.74,0.27,1.02,0.76,1.89,2.74c0.35,0.79,0.78,1.77,1.36,2.9
					l1.05,2.03l1.6-1.63c0.19-0.19,4.61-4.76,9.03-14.23v0c0.97-2.08,1.76-4.66,2.39-7.31C195.92,91.79,195.96,87.76,195.99,83.73z
					 M190.23,101.71L190.23,101.71c-2.6,5.57-5.22,9.36-6.82,11.43c-0.06-0.15-0.13-0.29-0.19-0.43c-0.92-2.09-1.64-3.74-3.79-4.52
					c-0.93-0.34-1.73-0.48-2.55-0.48c-1.13,0-2.29,0.27-3.85,0.62c-1.87,0.43-4.44,1.02-8.57,1.57
					c-15.71,2.09-22.53,2.69-49.84,0.26c-4.2-0.37-6.86-1.63-8.15-3.85c-2.98-5.12,1.45-14.87,5.01-22.7
					c0.94-2.07,1.84-4.03,2.53-5.79c4.28-10.74,8.8-20.47,11.5-26.28l0.49-1.06c3.15-6.78,6.42-11.88,10.29-16.04
					c4.73-5.08,12.49-12.81,14.56-14.5c0.82-0.67,3.05,0.32,5.55,2.46c0.39,0.34,1,0.71,1.83,1.22c1.68,1.03,5.17,3.16,5.49,4.79
					c0.04,0.2,0.04,0.43-0.22,0.78l-0.1,0.15c-0.47,0.82-1.44,2.21-2.01,2.61c-0.91,0.64-0.94,1.55-0.68,2.13
					c0.55,1.28,1.87,1.02,2.58,0.88c2-0.4,3.24-0.42,3.68-0.06c0.1,0.08,0.15,0.27,0.15,0.56c0,1.39-1.19,1.97-5.08,2.46
					c-1.13,0.14-2.1,0.27-2.83,0.57c-0.73,0.31-1.5,0.49-2.31,0.69c-1.18,0.28-2.51,0.6-3.93,1.34c-2.23,1.17-5.45,2.38-7.75,2.3
					c-0.56-0.02-1.06-0.11-1.53-0.19c-2.08-0.37-3.91-0.37-5.39,3.43l-0.31,0.78c-1.58,4.01-4.87,12.36-4.26,20.79
					c0.62,8.58-0.18,19.9-1.69,23.75l-1.48,3.78l3.7-1.67c0.34-0.16,33.96-15.12,60.1-10.83C194.01,86.41,192.8,96.21,190.23,101.71
					z"/>
				<path class="st1" d="M166.02,34.66c0,0-2.88,0.12-5.46,1.36c-1.6,0.77-2.37,1.62-3.92,0.98c-0.23-0.09-0.46-0.18-0.69-0.26
					c-3.59-1.3-3.59-1.3-6.13,1.53c-2.06,2.3-3.71,2.79-5.31,1.9c2.03-2,4.28-3.95,6.21-6.17c2.4-2.75,2.31-3.4,0.37-6.25
					c0.09-0.14,0.19-0.28,0.28-0.42c0.66,0.51,1.34,1,1.98,1.53c0.43,0.35,0.82,0.75,1.22,1.13c0.45-0.53,1.06-1,1.31-1.61
					c0.29-0.7,0.27-1.53,0.81-2.33c0.12,1.29,0.24,2.57,0.37,3.99c0.53,0.06,1.16,0.14,2.12,0.25c-0.77,0.32-1.25,0.52-1.86,0.77
					c0.07,0.41,0.14,0.84,0.22,1.34c-2.16-1.45-3.44-2.28-4.27,1.36c1.6,0.49,2.85,0.72,4.49,1.09c1.14,0.26,4.5-3.25,5.33-4.04"/>
				<path class="st4" d="M92.83,77.22C88.27,65.77,83.5,55.6,80.8,49.79c-2.7-5.81-6.02-11.56-10.58-16.47
					c-4.56-4.9-12.45-12.79-14.73-14.65c-2.28-1.86-6.22,1.24-7.68,2.49c-1.45,1.24-10.18,5.17-7.36,9.02c0,0,1.35,2.34,2.49,3.14
					c1.14,0.8-6.43-2.31-6.43,2.15s6.95,3.73,8.92,4.56c1.97,0.83,3.94,0.83,6.12,1.97c2.18,1.14,5.76,2.59,8.58,2.49
					c2.83-0.1,3.86-1.56,5.32,2.18c1.45,3.73,5.08,12.24,4.46,20.85c-0.62,8.61,0.14,20.22,1.8,24.47c0,0-32.84-14.81-59.54-11.18
					c0.21,2.45,0.35,4.91,0.34,7.38c0,0.9-0.03,1.8-0.07,2.7c0.7,3.79,1.91,7.46,3.64,11.08c1.58,3.3,3.17,6.73,5.13,9.82
					c0.58,0.91,1.26,1.74,1.96,2.55c1.15-2.54,1.55-3.98,3.27-4.61c3.04-1.11,4.19,0.47,14.18,1.8c15.82,2.11,22.69,2.72,50.21,0.27
					C110.78,110.04,97.39,88.67,92.83,77.22z"/>
				<path class="st1" d="M96.84,82.24c-0.93-2.04-1.8-3.96-2.47-5.64C90.06,65.78,85.51,56,82.79,50.16L82.3,49.1
					c-3.3-7.11-6.75-12.48-10.87-16.9c-4.49-4.82-12.52-12.87-14.89-14.81c-1.6-1.31-4.61-1.94-9.8,2.51
					c-0.19,0.17-0.83,0.56-1.4,0.9c-2.55,1.56-6.42,3.92-7.02,6.97c-0.23,1.15,0.03,2.3,0.74,3.31c0.04,0.07,0.09,0.16,0.16,0.26
					c-1.07,0.04-2.15,0.3-3,1c-0.62,0.51-1.36,1.46-1.36,3.12c0,4.74,5.19,5.4,7.98,5.75c0.77,0.1,1.65,0.21,1.96,0.34
					c0.98,0.41,1.92,0.64,2.83,0.85c1.09,0.26,2.11,0.51,3.17,1.06c1.27,0.66,5.68,2.82,9.41,2.68c0.8-0.03,1.46-0.15,1.99-0.24
					c0.34-0.06,0.81-0.15,0.94-0.12h0c-0.01,0,0.28,0.22,0.77,1.48l0.31,0.79c1.61,4.08,4.6,11.66,4.04,19.34
					c-0.48,6.71-0.17,15.93,0.97,21.75c-3.64-1.47-10.16-3.9-18.19-6.08c-17.45-4.75-29.99-4.98-38.23-4
					c-0.1,1.11-0.14,2.23-0.13,3.35c25.87-3.37,58,10.93,58.34,11.08l3.7,1.67l-1.48-3.78c-1.5-3.85-2.31-15.17-1.69-23.75
					c0.61-8.43-2.68-16.78-4.26-20.79l-0.31-0.78c-1.48-3.8-3.31-3.8-5.39-3.43c-0.48,0.08-0.97,0.17-1.53,0.19
					c-2.31,0.08-5.52-1.13-7.75-2.3c-1.42-0.74-2.75-1.06-3.93-1.34c-0.82-0.2-1.59-0.38-2.31-0.69c-0.73-0.31-1.7-0.43-2.83-0.57
					c-3.89-0.49-5.08-1.07-5.08-2.46c0-0.29,0.05-0.48,0.15-0.56c0.44-0.36,1.68-0.34,3.68,0.06c0.71,0.14,2.03,0.4,2.58-0.88
					c0.25-0.58,0.22-1.49-0.68-2.13c-0.57-0.4-1.54-1.8-2.01-2.61l-0.1-0.15c-0.26-0.35-0.26-0.58-0.22-0.78
					c0.32-1.62,3.81-3.76,5.49-4.79c0.83-0.51,1.44-0.88,1.83-1.22c2.5-2.14,4.73-3.13,5.55-2.46c2.07,1.69,9.83,9.41,14.56,14.5
					c3.87,4.16,7.14,9.25,10.29,16.04l0.49,1.06c2.7,5.81,7.22,15.54,11.5,26.28c0.7,1.75,1.59,3.71,2.53,5.79
					c3.56,7.83,8,17.58,5.01,22.7c-1.29,2.22-3.96,3.48-8.15,3.85c-27.31,2.43-34.13,1.83-49.84-0.26
					c-4.13-0.55-6.69-1.14-8.57-1.57c-1.56-0.36-2.72-0.62-3.85-0.62c-0.82,0-1.62,0.14-2.55,0.48c-2.15,0.79-2.87,2.43-3.79,4.52
					c-0.06,0.14-0.12,0.28-0.19,0.43c-1.6-2.07-4.22-5.86-6.82-11.43v0c-0.86-1.84-1.56-4.16-2.14-6.57
					c0.68,3.28,1.5,6.54,2.62,9.67c1.29,3.59,3.13,6.2,5.49,9.11c0.83,1.02,1.8,2.12,2.57,3.32l0.15-0.29
					c0.58-1.12,1.01-2.11,1.36-2.9c0.87-1.98,1.15-2.47,1.89-2.74c1.25-0.46,1.92-0.33,4.52,0.26c1.93,0.44,4.59,1.05,8.87,1.62
					c15.98,2.13,22.92,2.74,50.57,0.28c5.27-0.47,8.88-2.31,10.73-5.48C105.55,101.39,100.72,90.77,96.84,82.24z"/>
				<path class="st1" d="M39.29,34.66c0,0,2.88,0.12,5.46,1.36c1.6,0.77,2.37,1.62,3.92,0.98c0.23-0.09,0.46-0.18,0.69-0.26
					c3.59-1.3,3.59-1.3,6.13,1.53c2.06,2.3,3.71,2.79,5.31,1.9c-2.03-2-4.28-3.95-6.21-6.17c-2.4-2.75-2.31-3.4-0.37-6.25
					c-0.09-0.14-0.19-0.28-0.28-0.42c-0.66,0.51-1.34,1-1.98,1.53c-0.43,0.35-0.82,0.75-1.22,1.13c-0.45-0.53-1.06-1-1.31-1.61
					c-0.29-0.7-0.27-1.53-0.81-2.33c-0.12,1.29-0.24,2.57-0.37,3.99c-0.53,0.06-1.16,0.14-2.12,0.25c0.77,0.32,1.25,0.52,1.86,0.77
					c-0.07,0.41-0.14,0.84-0.22,1.34c2.16-1.45,3.44-2.28,4.27,1.36c-1.6,0.49-2.85,0.72-4.49,1.09c-1.14,0.26-4.5-3.25-5.33-4.04"
					/>
			</g>
			<path class="st1" d="M173.9,41.77c-1.64,0.23-3.25,0.51-4.84,0.89c15.66,10.4,25.29,24.53,25.29,40.1
				c0,31.93-40.46,57.82-90.38,57.82c-49.92,0-90.38-25.89-90.38-57.82c0-15.68,9.77-29.9,25.61-40.32
				c-1.56-0.31-3.11-0.67-4.66-1.06C19.28,52.32,9.96,66.86,9.96,82.79c0,0.87-0.01,3.29-0.01,3.6c0,35.93,36.78,65.03,93.99,65.03
				c57.56,0,94.01-29.09,94.01-65.03v-3.6C197.95,67.05,188.85,52.66,173.9,41.77z"/>
		</g>
	</g>
</g>
<g>
	<path class="st5" d="M338.96,215.89l5.63-8.56c2.97,3.07,7.55,5.62,13.25,5.62c3.59,0,5.82-1.28,5.82-3.39
		c0-5.62-23.34-0.96-23.34-17.38c0-7.16,5.82-13.55,16.41-13.55c6.63,0,12.38,2.04,16.78,5.94l-5.82,8.24
		c-3.47-3-7.99-4.47-12.07-4.47c-3.1,0-4.46,1.09-4.46,2.94c0,5.24,23.34,1.28,23.34,17.13c0,8.56-6.13,14.25-17.21,14.25
		C348.93,222.66,343.11,219.92,338.96,215.89z"/>
	<path class="st5" d="M397.42,221.9v-3.07c-1.86,2.3-5.45,3.83-9.29,3.83c-4.58,0-10.28-3.26-10.28-10.16
		c0-7.48,5.7-9.97,10.28-9.97c3.96,0,7.49,1.34,9.29,3.64v-3.07c0-2.68-2.23-4.54-6.07-4.54c-2.97,0-5.94,1.21-8.36,3.32l-3.53-6.84
		c3.84-3.39,8.98-4.79,13.56-4.79c7.18,0,13.93,2.75,13.93,12.33v19.3H397.42z M397.42,213.97v-2.75c-0.99-1.47-3.22-2.17-5.33-2.17
		c-2.48,0-4.77,1.15-4.77,3.58c0,2.43,2.29,3.58,4.77,3.58C394.19,216.21,396.42,215.44,397.42,213.97z"/>
	<path class="st5" d="M414.45,221.9v-42.62h9.54v42.62H414.45z"/>
	<path class="st5" d="M429.56,206.43c0-8.69,6.07-16.17,16.22-16.17c10.28,0,16.35,7.48,16.35,16.17c0,8.69-6.07,16.23-16.35,16.23
		C435.62,222.66,429.56,215.12,429.56,206.43z M452.34,206.43c0-4.09-2.35-7.48-6.56-7.48c-4.09,0-6.44,3.39-6.44,7.48
		c0,4.15,2.35,7.54,6.44,7.54C449.99,213.97,452.34,210.59,452.34,206.43z M446.71,186.37h-6.44l7.86-9.2h8.42L446.71,186.37z"/>
	<path class="st5" d="M487.95,221.9v-17.83c0-3.77-1.92-5.11-4.89-5.11c-2.85,0-4.71,1.6-5.82,3v19.94h-9.54v-30.87h9.54v3.77
		c1.8-2.17,5.33-4.54,10.4-4.54c6.75,0,9.84,4.09,9.84,9.78v21.86H487.95z"/>
	<path class="st5" d="M532.78,221.9l-15.54-42.62h12.07l10.22,30.74l10.15-30.74h12.08l-15.54,42.62H532.78z"/>
	<path class="st5" d="M564.43,182.6c0-3.13,2.42-5.62,5.45-5.62s5.51,2.49,5.51,5.62c0,3.13-2.48,5.69-5.51,5.69
		S564.43,185.73,564.43,182.6z M565.11,221.9v-30.87h9.54v30.87H565.11z"/>
	<path class="st5" d="M582.14,221.9v-30.87h9.54v3.77c1.98-2.49,5.82-4.6,9.35-4.6v9.46c-0.56-0.19-1.36-0.26-2.35-0.26
		c-2.48,0-5.76,1.09-7,2.81v19.68H582.14z"/>
	<path class="st5" d="M607.9,213.59v-14.06h-4.95v-8.5h4.95v-8.44h9.54v8.44h6.07v8.5h-6.07v11.31c0,1.79,0.99,3.13,2.6,3.13
		c1.05,0,2.11-0.38,2.42-0.77l1.86,7.41c-1.18,1.15-3.53,2.04-7.06,2.04C611.18,222.66,607.9,219.53,607.9,213.59z"/>
	<path class="st5" d="M648.95,221.9v-3.71c-1.86,2.17-5.26,4.47-10.34,4.47c-6.75,0-9.84-4.03-9.84-9.65v-21.98h9.54v17.89
		c0,3.77,1.86,5.05,4.95,5.05c2.72,0,4.58-1.53,5.7-3v-19.94h9.54v30.87H648.95z"/>
	<path class="st5" d="M683.63,221.9v-3.07c-1.86,2.3-5.45,3.83-9.29,3.83c-4.58,0-10.28-3.26-10.28-10.16
		c0-7.48,5.7-9.97,10.28-9.97c3.96,0,7.49,1.34,9.29,3.64v-3.07c0-2.68-2.23-4.54-6.07-4.54c-2.97,0-5.94,1.21-8.36,3.32l-3.53-6.84
		c3.84-3.39,8.98-4.79,13.56-4.79c7.18,0,13.93,2.75,13.93,12.33v19.3H683.63z M683.63,213.97v-2.75c-0.99-1.47-3.22-2.17-5.33-2.17
		c-2.48,0-4.77,1.15-4.77,3.58c0,2.43,2.29,3.58,4.77,3.58C680.41,216.21,682.64,215.44,683.63,213.97z"/>
	<path class="st5" d="M700.66,221.9v-42.62h9.54v42.62H700.66z"/>
</g>
</svg>
