<svg enable-background="new 0 0 84 100" viewBox="0 0 84 100" xmlns="http://www.w3.org/2000/svg"><g clip-rule="evenodd" fill-rule="evenodd"><path d="m68.7 46.8h4.3l-8.9 10.3h-4.3z" fill="#ed3224"/><path d="m74.8 46.8h4.4l-8.9 10.3h-4.4z" fill="#ed3224"/><g fill="#231f20"><path d="m5.2 53v-3.2s0-.3.2-.4.4-.1.4-.1h5.9s1.7 0 3.1.4c1.1.3 1.9.9 1.9 1.7 0 .7-.5 1.3-1.4 1.6-1.3.5-3.3.4-3.3.4h-6.2s-.6.1-.6-.4m2.6-.6v-2s0-.2.2-.2h3.8s.8 0 1.5.3c.5.2.8.5.8.9 0 .3-.2.7-.6.9-.7.3-1.7.3-1.7.3h-3.8s-.2 0-.2-.2"/><path d="m24 49.2c.2 0 6.3 0 6.3 2.1 0 1.6-2.3 2-4.1 2.1-1.2.1-2.1 0-2.1 0s-1 0-2.2-.1c-1.7-.2-3.8-.6-3.8-2-.1-2.2 5.7-2.1 5.9-2.1m0 .9c.6 0 3.6.1 3.6 1.3 0 1.3-2.8 1.2-3.6 1.2s-3.4-.1-3.4-1.2c0-1.3 2.8-1.3 3.4-1.3"/><path d="m55.8 49.5v.4s0 .3-.2.3h-6.4s-2.3 0-2.3 1.2 1.9 1.2 2.5 1.2h3.6s.2 0 .2-.2v-.4s0-.2-.2-.2h-3.1s-.2 0-.2-.2 0-.5 0-.5 0-.2.2-.2h5.4s.5 0 .5.4v1.5c0 .2-.1.5-.6.5h-6.1s-2.4 0-3.8-.6c-.6-.3-1-.8-1-1.5 0-1.5 2-1.9 3.4-2 .7-.1 1.2-.1 1.2-.1s6.8 0 6.8 0c0 .2.1.2.1.4"/><path d="m67.3 49.3s.3 0 .3.2v.4c0 .2 0 .3-.2.3h-7.4s-.2 0-.2.2v.3s0 .2.2.2h7s.3 0 .3.2v.5s0 .2-.2.2h-7c-.1 0-.3 0-.3.2v.4s0 .2.3.2h7.4s.3 0 .3.2v.5s0 .2-.2.2h-9.8c-.3 0-.6-.1-.6-.6s0-2.7.1-3c0-.4.2-.5.6-.5h9.4z"/><path d="m31.5 53v-3.2s0-.3.2-.4.4-.1.4-.1h5.9s1.7 0 3.1.4c1.1.3 1.9.9 1.9 1.7 0 .7-.5 1.3-1.4 1.6-1.4.5-3.4.4-3.4.4h-6.2s-.5.1-.5-.4m2.6-.6v-2s0-.2.2-.2h3.8s.8 0 1.5.3c.5.2.8.5.8.9 0 .3-.2.7-.6.9-.7.3-1.7.3-1.7.3h-3.8s-.2 0-.2-.2"/></g></g></svg>