<svg enable-background="new 0 0 84 100" viewBox="0 0 84 100" xmlns="http://www.w3.org/2000/svg" xmlns:xlink="http://www.w3.org/1999/xlink"><linearGradient id="a" gradientTransform="matrix(1 0 0 -1 0 102)" gradientUnits="userSpaceOnUse" x1="60.7022" x2="48.5286" y1="71.9399" y2="53.2946"><stop offset=".2033" stop-color="#d3d2d2"/><stop offset=".2167" stop-color="#c1bfc0"/><stop offset=".2499" stop-color="#989697"/><stop offset=".2824" stop-color="#787676"/><stop offset=".3136" stop-color="#615f5f"/><stop offset=".3428" stop-color="#545151"/><stop offset=".3681" stop-color="#4f4c4d"/><stop offset=".4441" stop-color="#555253"/><stop offset=".545" stop-color="#656363"/><stop offset=".66" stop-color="#817e7f"/><stop offset=".7844" stop-color="#a6a5a5"/><stop offset=".8132" stop-color="#b0aeaf"/><stop offset="1" stop-color="#231f20"/></linearGradient><linearGradient id="b" gradientTransform="matrix(1 0 0 -1 0 102)" gradientUnits="userSpaceOnUse" x1="26.4261" x2="28.6316" y1="58.4421" y2="63.4933"><stop offset=".031035" stop-color="#b2b1b1"/><stop offset=".2" stop-color="#b2b1b1"/><stop offset=".9897" stop-color="#656263"/></linearGradient><linearGradient id="c" gradientTransform="matrix(1 0 0 -1 0 102)" gradientUnits="userSpaceOnUse" x1="56.6282" x2="53.9108" y1="70.5196" y2="70.7766"><stop offset=".1966" stop-color="#4f4c4d"/><stop offset=".2614" stop-color="#514e4f"/><stop offset=".2848" stop-color="#585555"/><stop offset=".3014" stop-color="#636161"/><stop offset=".3149" stop-color="#747172"/><stop offset=".3264" stop-color="#898788"/><stop offset=".3366" stop-color="#a4a3a3"/><stop offset=".3459" stop-color="#c4c3c3"/><stop offset=".3541" stop-color="#e8e7e7"/><stop offset=".3586" stop-color="#fff"/><stop offset=".8241" stop-color="#4f4c4d"/><stop offset="1" stop-color="#393636"/></linearGradient><linearGradient id="d" gradientTransform="matrix(1 0 0 -1 0 102)" gradientUnits="userSpaceOnUse" x1="32.0984" x2="34.334" y1="55.7732" y2="60.8934"><stop offset="0" stop-color="#d3d2d2"/><stop offset=".103" stop-color="#c4c3c4"/><stop offset=".2449" stop-color="#b7b5b6"/><stop offset=".3681" stop-color="#b2b1b1"/><stop offset=".9897" stop-color="#231f20"/></linearGradient><linearGradient id="e" gradientTransform="matrix(1 0 0 -1 0 102)" gradientUnits="userSpaceOnUse" x1="53.9048" x2="13.9675" y1="31.5735" y2="72.2026"><stop offset=".076923" stop-color="#918f90"/><stop offset=".1209" stop-color="#9c9a9b"/><stop offset=".1703" stop-color="#7b7979"/><stop offset=".3077" stop-color="#918f90"/><stop offset=".4725" stop-color="#f4f4f4"/><stop offset=".6978" stop-color="#f4f4f4"/><stop offset=".7236" stop-color="#e5e5e5"/><stop offset=".7734" stop-color="#bebcbd"/><stop offset=".8407" stop-color="#7f7d7e"/><stop offset=".9615" stop-color="#4f4c4d"/></linearGradient><radialGradient id="f" cx="36.6494" cy="66.9272" gradientTransform="matrix(1 0 0 -1 0 102)" gradientUnits="userSpaceOnUse" r="9.1074"><stop offset=".035714" stop-color="#fff"/><stop offset=".467" stop-color="#fff"/><stop offset=".5215" stop-color="#fbfbfb"/><stop offset=".5779" stop-color="#efeeee"/><stop offset=".6352" stop-color="#dadada"/><stop offset=".6928" stop-color="#bebdbd"/><stop offset=".7473" stop-color="#9c9a9b"/><stop offset=".8462" stop-color="#7b7979"/><stop offset="1" stop-color="#4f4c4d"/></radialGradient><radialGradient id="g" cx="38.6931" cy="43.9314" gradientTransform="matrix(1 0 0 -.9636 0 75.5673)" gradientUnits="userSpaceOnUse" r="3.2149"><stop offset=".035714" stop-color="#fff"/><stop offset=".2276" stop-color="#fff"/><stop offset=".2999" stop-color="#f6f6f6"/><stop offset=".4199" stop-color="#dddcdc"/><stop offset=".5729" stop-color="#b4b3b3"/><stop offset=".7529" stop-color="#7c7a7a"/><stop offset=".9534" stop-color="#353132"/><stop offset="1" stop-color="#231f20"/></radialGradient><radialGradient id="h" cx="36.6836" cy="73.8143" gradientTransform="matrix(1 0 0 -1 0 102)" gradientUnits="userSpaceOnUse" r="3.7819"><stop offset=".2308" stop-color="#fff"/><stop offset=".5714" stop-color="#f6f6f6"/><stop offset=".8626" stop-color="#231f20"/></radialGradient><radialGradient id="i" cx="43.0197" cy="66.4352" gradientTransform="matrix(1 0 0 -1 0 102)" gradientUnits="userSpaceOnUse" r="12.7385"><stop offset=".035714" stop-color="#fff"/><stop offset=".2527" stop-color="#fff"/><stop offset=".272" stop-color="#fbfbfb"/><stop offset=".292" stop-color="#efeeee"/><stop offset=".3123" stop-color="#dadada"/><stop offset=".3327" stop-color="#bebdbd"/><stop offset=".3462" stop-color="#a7a6a6"/><stop offset=".4121" stop-color="#7b7979"/><stop offset=".4725" stop-color="#4f4c4d"/><stop offset=".8571" stop-color="#4f4c4d"/></radialGradient><linearGradient id="j" gradientTransform="matrix(1 0 0 -1 0 102)" gradientUnits="userSpaceOnUse" x1="34.1088" x2="27.8723" y1="59.2363" y2="57.6771"><stop offset="0" stop-color="#f4f4f4"/><stop offset=".05726133" stop-color="#e7e7e7"/><stop offset=".2582" stop-color="#bdbcbc"/><stop offset=".2851" stop-color="#c8c7c8"/><stop offset=".3457" stop-color="#dcdbdb"/><stop offset=".4152" stop-color="#eae9e9"/><stop offset=".5006" stop-color="#f2f1f1"/><stop offset=".6484" stop-color="#f4f4f4"/><stop offset=".8956" stop-color="#fff"/></linearGradient><linearGradient id="k" gradientTransform="matrix(.4383 0 0 -.4383 -563.0529 -266.8921)" gradientUnits="userSpaceOnUse" x1="1361.7891" x2="1426.9646" y1="-670.8201" y2="-750.2277"><stop offset="0" stop-color="#fff"/><stop offset=".068966" stop-color="#e2e2e2"/><stop offset=".1565" stop-color="#fff"/><stop offset=".2033" stop-color="#fff"/><stop offset=".2724" stop-color="#e4e4e4"/><stop offset=".3297" stop-color="#d3d2d2"/><stop offset=".3588" stop-color="#e6e6e6"/><stop offset=".393" stop-color="#f4f4f4"/><stop offset=".4343" stop-color="#fcfcfc"/><stop offset=".502" stop-color="#fff"/><stop offset=".8852" stop-color="#fff"/><stop offset=".9797" stop-color="#bbbaba"/></linearGradient><linearGradient id="l" gradientTransform="matrix(1 0 0 -1 0 102)" gradientUnits="userSpaceOnUse" x1="26.6282" x2="55.8235" y1="68.1784" y2="40.449"><stop offset="0" stop-color="#deddde"/><stop offset=".002050494" stop-color="#ddd"/><stop offset=".1262" stop-color="#aba9aa"/><stop offset=".2429" stop-color="#838181"/><stop offset=".3488" stop-color="#676465"/><stop offset=".4402" stop-color="#555253"/><stop offset=".5069" stop-color="#4f4c4d"/><stop offset=".5778" stop-color="#545152"/><stop offset=".6619" stop-color="#625f60"/><stop offset=".7528" stop-color="#7a7778"/><stop offset=".8485" stop-color="#9b9999"/><stop offset=".9469" stop-color="#c4c3c4"/><stop offset="1" stop-color="#deddde"/></linearGradient><linearGradient id="m" gradientTransform="matrix(1 0 0 -1 0 102)" gradientUnits="userSpaceOnUse" x1="40.6565" x2="29.2798" y1="54.6786" y2="37.6704"><stop offset="0" stop-color="#c8c7c7"/><stop offset=".1" stop-color="#fff"/><stop offset=".3492" stop-color="#f0efef"/><stop offset=".411" stop-color="#f6f6f6"/><stop offset=".5385" stop-color="#fff"/><stop offset=".5683" stop-color="#cecece"/><stop offset=".6049" stop-color="#9a9898"/><stop offset=".6391" stop-color="#706d6e"/><stop offset=".6698" stop-color="#524f50"/><stop offset=".6959" stop-color="#403c3d"/><stop offset=".7143" stop-color="#393636"/><stop offset=".7148" stop-color="#3b3738"/><stop offset=".7329" stop-color="#6e6c6c"/><stop offset=".7512" stop-color="#9a9999"/><stop offset=".7695" stop-color="#bfbebe"/><stop offset=".7877" stop-color="#dbdada"/><stop offset=".8058" stop-color="#efefef"/><stop offset=".8238" stop-color="#fbfbfb"/><stop offset=".8414" stop-color="#fff"/><stop offset=".8507" stop-color="#fafafa"/><stop offset=".8611" stop-color="#ededed"/><stop offset=".8721" stop-color="#d7d6d6"/><stop offset=".8835" stop-color="#b8b7b7"/><stop offset=".8952" stop-color="#908e8f"/><stop offset=".907" stop-color="#605d5e"/><stop offset=".9103" stop-color="#514e4f"/><stop offset=".9451" stop-color="#514e4f"/><stop offset="1" stop-color="#868484"/></linearGradient><linearGradient id="n" gradientTransform="matrix(1 0 0 -1 0 102)" gradientUnits="userSpaceOnUse" x1="39.3543" x2="42.3572" y1="45.8163" y2="44.0474"><stop offset=".2" stop-color="#fff"/><stop offset=".3248" stop-color="#fdfdfd"/><stop offset=".3984" stop-color="#f4f4f4"/><stop offset=".4587" stop-color="#e6e6e6"/><stop offset=".5115" stop-color="#d3d2d2"/><stop offset=".5207" stop-color="#cfcece"/><stop offset=".8352" stop-color="#4f4c4d"/><stop offset=".9509" stop-color="#413d3e"/><stop offset="1" stop-color="#393636"/></linearGradient><linearGradient id="o" gradientTransform="matrix(1 0 0 -1 0 102)" gradientUnits="userSpaceOnUse" x1="41.0646" x2="44.224" y1="53.953" y2="57.7354"><stop offset=".021978" stop-color="#fff"/><stop offset=".1828" stop-color="#fff"/><stop offset=".2088" stop-color="#fff"/><stop offset=".3129" stop-color="#f7f7f7"/><stop offset=".4723" stop-color="#e2e2e2"/><stop offset=".5" stop-color="#deddde"/><stop offset=".5565" stop-color="#d4d3d4"/><stop offset=".813" stop-color="#acaaab"/><stop offset=".9451" stop-color="#9c9a9b"/><stop offset="1" stop-color="#959494"/></linearGradient><linearGradient id="p"><stop offset="0" stop-color="#231f20"/><stop offset=".04528604" stop-color="#252223"/><stop offset=".07122616" stop-color="#2d2a2b"/><stop offset=".09228829" stop-color="#3b3839"/><stop offset=".1107" stop-color="#4f4c4c"/><stop offset=".1275" stop-color="#686666"/><stop offset=".143" stop-color="#878586"/><stop offset=".1575" stop-color="#acabab"/><stop offset=".1709" stop-color="#d6d5d5"/><stop offset=".1793" stop-color="#f4f4f4"/><stop offset=".2249" stop-color="#cdcccc"/><stop offset=".2817" stop-color="#a3a2a2"/><stop offset=".3396" stop-color="#817f7f"/><stop offset=".398" stop-color="#666464"/><stop offset=".457" stop-color="#535051"/><stop offset=".5169" stop-color="#484545"/><stop offset=".5793" stop-color="#444142"/><stop offset=".726" stop-color="#3d3a3a"/><stop offset=".942" stop-color="#292627"/><stop offset="1" stop-color="#231f20"/></linearGradient><linearGradient id="q" gradientTransform="matrix(1 0 0 -1 0 102)" gradientUnits="userSpaceOnUse" x1="48.0138" x2="52.1272" xlink:href="#p" y1="75.0623" y2="70.8542"/><linearGradient id="r" gradientTransform="matrix(1 0 0 -1 0 102)" gradientUnits="userSpaceOnUse" x1="48.5216" x2="53.2028" xlink:href="#p" y1="57.573" y2="60.6464"/><linearGradient id="s" gradientTransform="matrix(1 0 0 -1 0 102)" gradientUnits="userSpaceOnUse" x1="52.2722" x2="58.4206" y1="72.5074" y2="72.5074"><stop offset="0" stop-color="#656263"/><stop offset=".2857" stop-color="#d3d2d2"/><stop offset=".3369" stop-color="#aeacad"/><stop offset=".3906" stop-color="#8e8c8d"/><stop offset=".4423" stop-color="#777576"/><stop offset=".4909" stop-color="#6a6768"/><stop offset=".533" stop-color="#656263"/><stop offset=".7582" stop-color="#393636"/><stop offset="1" stop-color="#231f20"/></linearGradient><linearGradient id="t"><stop offset="0" stop-color="#231f20"/><stop offset=".0532966" stop-color="#252223"/><stop offset=".08382253" stop-color="#2d2a2b"/><stop offset=".1086" stop-color="#3b3839"/><stop offset=".1303" stop-color="#4f4c4c"/><stop offset=".15" stop-color="#686566"/><stop offset=".1679" stop-color="#878585"/><stop offset=".1793" stop-color="#9e9d9d"/><stop offset=".2491" stop-color="#817f7f"/><stop offset=".3291" stop-color="#666464"/><stop offset=".4104" stop-color="#535051"/><stop offset=".4931" stop-color="#484545"/><stop offset=".5793" stop-color="#444142"/><stop offset=".726" stop-color="#3d3a3a"/><stop offset=".942" stop-color="#292627"/><stop offset="1" stop-color="#231f20"/></linearGradient><linearGradient id="u" gradientTransform="matrix(1 0 0 -1 0 102)" gradientUnits="userSpaceOnUse" x1="27.1877" x2="41.3641" xlink:href="#t" y1="40.5988" y2="40.5988"/><linearGradient id="v" gradientTransform="matrix(1 0 0 -1 0 102)" gradientUnits="userSpaceOnUse" x1="45.2177" x2="51.5577" xlink:href="#t" y1="45.9923" y2="45.9923"/><linearGradient id="w" gradientTransform="matrix(1 0 0 -1 0 102)" gradientUnits="userSpaceOnUse" x1="49.4627" x2="61.1085" xlink:href="#t" y1="45.0817" y2="45.0817"/><linearGradient id="x" gradientTransform="matrix(1 0 0 -1 0 102)" gradientUnits="userSpaceOnUse" x1="26.5573" x2="38.6969" y1="56.4975" y2="56.4975"><stop offset="0" stop-color="#7b7979"/><stop offset=".05911615" stop-color="#7d7b7c"/><stop offset=".09297915" stop-color="#858384"/><stop offset=".1205" stop-color="#939192"/><stop offset=".1445" stop-color="#a7a5a6"/><stop offset=".1661" stop-color="#c0bfbf"/><stop offset=".1793" stop-color="#d3d2d2"/><stop offset=".2729" stop-color="#acabab"/><stop offset=".3894" stop-color="#828081"/><stop offset=".5082" stop-color="#605d5e"/><stop offset=".628" stop-color="#454243"/><stop offset=".749" stop-color="#322f2f"/><stop offset=".872" stop-color="#272324"/><stop offset="1" stop-color="#231f20"/></linearGradient><linearGradient id="y" gradientTransform="matrix(1 0 0 -1 0 102)" gradientUnits="userSpaceOnUse" x1="26.8242" x2="31.1446" y1="63.8451" y2="63.8451"><stop offset="0" stop-color="#444142"/><stop offset=".05090592" stop-color="#464344"/><stop offset=".08006565" stop-color="#4e4b4c"/><stop offset=".1037" stop-color="#5c595a"/><stop offset=".1245" stop-color="#706d6e"/><stop offset=".1433" stop-color="#898787"/><stop offset=".1607" stop-color="#a8a7a7"/><stop offset=".1767" stop-color="#cccbcc"/><stop offset=".1793" stop-color="#d3d2d2"/><stop offset=".2729" stop-color="#acabab"/><stop offset=".3894" stop-color="#828081"/><stop offset=".5082" stop-color="#605d5e"/><stop offset=".628" stop-color="#454243"/><stop offset=".749" stop-color="#322f2f"/><stop offset=".872" stop-color="#272324"/><stop offset="1" stop-color="#231f20"/></linearGradient><linearGradient id="z" gradientTransform="matrix(1 0 0 -1 0 102)" gradientUnits="userSpaceOnUse" x1="23.1334" x2="25.9768" y1="57.5498" y2="57.5498"><stop offset="0" stop-color="#7b7979"/><stop offset=".06459828" stop-color="#7d7b7c"/><stop offset=".1016" stop-color="#858384"/><stop offset=".1316" stop-color="#939192"/><stop offset=".1577" stop-color="#a7a5a5"/><stop offset=".1793" stop-color="#bdbcbc"/><stop offset=".27" stop-color="#a3a1a2"/><stop offset=".411" stop-color="#817f7f"/><stop offset=".5544" stop-color="#666464"/><stop offset=".6992" stop-color="#535051"/><stop offset=".8466" stop-color="#484545"/><stop offset="1" stop-color="#444142"/></linearGradient><linearGradient id="A" gradientTransform="matrix(1 0 0 -1 0 102)" gradientUnits="userSpaceOnUse" x1="38.0919" x2="38.4041" y1="75.2356" y2="74.5489"><stop offset="0" stop-color="#fff"/><stop offset=".1154" stop-color="#ededed"/><stop offset=".9066" stop-color="#5a5758"/></linearGradient><linearGradient id="B" gradientTransform="matrix(1 0 0 -1 0 102)" gradientUnits="userSpaceOnUse" x1="34.1775" x2="45.6647" y1="68.1302" y2="68.1302"><stop offset=".6868" stop-color="#fff"/><stop offset=".7182" stop-color="#fafafa"/><stop offset=".7574" stop-color="#ebeaea"/><stop offset=".8008" stop-color="#d2d1d1"/><stop offset=".8472" stop-color="#afadad"/><stop offset=".896" stop-color="#827f80"/><stop offset=".946" stop-color="#4c4949"/><stop offset=".9797" stop-color="#231f20"/></linearGradient><linearGradient id="C" gradientTransform="matrix(1 0 0 -1 0 102)" gradientUnits="userSpaceOnUse" x1="33.4742" x2="37.7328" y1="39.7086" y2="54.7697"><stop offset="0" stop-color="#e9e9e9"/><stop offset=".065934" stop-color="#5a5758"/><stop offset=".2478" stop-color="#807e7f"/><stop offset=".3517" stop-color="#918f90"/><stop offset=".4771" stop-color="#a6a4a4"/><stop offset=".6044" stop-color="#b6b5b5"/><stop offset=".7041" stop-color="#9f9d9e"/><stop offset=".8693" stop-color="#7d7b7b"/><stop offset=".9586" stop-color="#706e6e"/><stop offset="1" stop-color="#b2b1b1"/></linearGradient><path d="m61.4 62.2c-.8-2.2-3.8-7.9-6.2-11.1-.5-.7-.4-1.1-.1-1.3s1.2-1 2.2-2.2c1.1-1.2 1.3-2.6.6-4.6-.8-2-3.2-6.7-3.7-8.2-.6-1.8-.6-2.6-.3-3.6.4-1.1 1.1-1.2 1.5-1.2.3 0 .4.3.4.4 0 .5.1 1.1.6 2.5.8 2.1 2.8 3.4 3.4 3.7.4.2.5-.1.5-.4-.1-.1-.7-2.7-1.2-4.7s-.8-2.5-1.3-2.9c-.7-.7-1.8-1.1-2.8-1.1-2.1.1-3 2.1-3.2 2.3-.1.1-.1.3-.4.1-.6-.4-2.4-1.9-2.5-2.8-.1-.6-.2-.6-.7-.8-2.1-.8-3.9-1.5-6-1.9-.8-.1-.8-.2-1.8-.1-1.4.7-2.4 1.1-3.6 1.7-.7.4-.8.6-.8.8-.1.1-.2.3-.4.4-.4.1-1.9.7-2.4 1-.4.2-.5.4-.4.8.3.6 1.1 2 1.5 2.3.2.2.8.4.9.4s.2.1.3 0 .1-.3.4-.5c.4-.3 1.1-.5 1.5-.5.3 0 .5 0 .6.1s.5.5.6.9.1.6-.1.6c-.2.1-.8.2-1.6.3s-1-.1-1-.2c-.1-.1-.1-.1-.2 0-.1.2-.3.3-.6.4-.1 0-.3.2-.1.4.5.8 1.1 1.8 1.7 1.9.5.1.7 0 1.3-.4.5-.4.8-.4.9-.2s.4.4.4.6c-.1.4-1 1.4-1.1 1.6-.2.3-.4.3-.6.2-.4-.2-6.4-3.3-7.1-3.6-.8-.4-1.5-.4-2.3-.4-.7 0-1.6.1-2.2.1-.4.1-.6.3-1.1.6-.6.5-1.1 1.1-1.2 1.7-.1.4.4 1.2.4 1.2.1.1.1.1.4.1s.8-.4 1.5-.2c.6.1.7.6.8 1 0 .1.1.2.3.2.3 0 .6 0 1.1.2.6.3 1.7 1.1 1.9 1.3.1.1.1.3-.1.4-1.4.1-3.6.6-4.6.9-.7.2-1.5.6-1.8 1.1-.4.6-.8 1.5-.9 2.2s.6 1.5.8 1.7c.1.1.2.2.4.1.4-.2 1.2-.7 2-.8.5 0 .7.4.8.6.1.1.2.1.7-.1.8-.2 5.1-.1 6.7-.1.7 0 1.7.1 2.4.6.7.4 2 1.6 2 1.6s-1.7 2.9-2.7 4.6c-.8 1.5-1.5 2.7-1.8 3.4-.3.6-.5 1.5-.5 2.2.1 1.1.1 1.5.1 2 0 .4-.4.4-.9.6-.8.2-2.2.4-3.4.6-1.1.3-1.5.6-1.7 1.4-.1.6-.4 2.3-.4 3 0 .3 0 .4.4.4.2-.1.8-.1 1.7-.2 1-.1 2.1-.1 2.9-.1 1.5 0 6.2.3 6.4.3.4.1.5 0 .4-.3-.1-.4-.1-1.5-.1-2.2s-.1-1.4.5-2c.6-.7 5.3-5.9 5.5-6.2.2-.2.4-.5.7-.1s4.2 3.1 5 3.6c.8.6 1.5.8 2.4.8.6 0 .8 1.1.3 1.3-.6.1-1.4.3-2 .4-.9.2-1.2.5-1.5 1.1-.2.5-.5 3.1-.5 3.3 0 .1 0 .4.2.4 1.1-.2 2.9-.3 4.8-.2 2.2.1 4.3.3 4.6.3.4 0 .4 0 .5-.3.3-.4 1.1-1.4 1.8-2 .3-.6.3-.7.2-1.2zm-8.4-15.4c-.6.2-.9 0-1.2-.2-.3-.3-2.5-2.9-3.2-3.7-.4-.4-.6-1.3.4-1.8.9-.4 2.5-.8 2.9-1.1.4-.2.7-.5.7-.9s.1-1 .1-1.1.2-.3.4-.1c.1.1.5.9 1 1.8.7 1.3 1.6 3 2 3.7.3.7.1 1.2-.3 1.8-.7.7-2.4 1.5-2.8 1.6z" fill="#231f20"/><path d="m55.2 28.2c-1.8 0-3.5 2-3.2 5 .2 1.8.5 2.7 1.1 3.9.3.6 3.2 6.2 3.4 6.8.2.8 0 1.4-.6 2-.7.6-1.9 1.4-2.7 1.7-.2.1-.4.1-.5.1-.2 0-.6-.1-1.5-1.1l3.8 5c-.5-.6-.8-1.1-.6-1.5.1-.4.8-.9 1.6-1.5s1.7-1.4 2.1-2.5c.1-.3.1-.6.1-.9 0-1-.5-2.2-1.1-3.4-.8-1.6-2.9-5.1-3.6-7.6-.1-.6-.2-1.1-.2-1.6 0-1.4.6-2.3 1.3-2.6.4-.1.6-.2.9-.2.4 0 .7.1.8.1.2.1.2.4.2.6v.1s0 .1 0 .3c0 .6.1 1.8.8 3.1.8 1.5 2.2 2.5 2.8 2.7.1 0-1.3-5-1.5-6-.5-1.4-1.2-2.5-3.4-2.5z" fill="url(#a)"/><path d="m31.5 39.3c.4.4-.3.3-2 .5-1.8.1-3.6.5-4.6.8-.7.3-1.1.4-1.4 1.1 0 0-.6 1.3-.6 1.8-.1.2 0 .4.1.6.1.1.2-3.2 4.6-3.4 3.8-.3 4.7-.7 3.9-1.4z" fill="url(#b)"/><path d="m53.4 32.5s.1-.8.2-1.3c.4-1.1 1.1-1.3 1.6-1.3.4 0 .5.1.6.2s.2.2.2.4c0 .5 0 1.1.5 2.4 0 .1.1.1.1.2-.4-1.1-.5-2-.5-2.5 0-.1 0-.4 0-.4 0-.4-.4-.5-.8-.5-.2 0-.5.1-.8.1-.6.2-1.1 1-1.2 2.3z" fill="url(#c)"/><path d="m31.7 39.5c.1.4-.4.3-2.2.4s-3.6.5-4.6.8c-.7.3-1.1.4-1.4 1.1 0 0-.6 1.3-.6 1.8-.1.2 0 .4.1.6.2.3.3.4.6.2.2-.1 1.2-.6 1.8-.7.6 0 .8.4.9.6s.3.1.4.1c.3-.1.5-.1 1.4-.2 1.1-.1 5.2-.1 6.7 0 1.3 0 6.7 4.3 6.8 4.3l.3-.6c-1.8-1.5-8.6-6.9-10.2-8.5z" fill="url(#d)"/><path d="m47.2 42.8c.8 1 3.2 3.9 5.3 6.6 3.2 4.2 5.3 7.4 7.4 12.3.2.5.1.6-.3.8-.6.5-.5.8-1 1.5-.1.1-.2.3-.4.2-.4-.1-3.9-.4-6.2-.3-1.3.1-1.7.1-2 .2-.2.1-.4 0-.4-.3 0-.1.3-1.5.4-2.1.2-.5.5-.7 1-.8.4-.1 1.8-.4 2.2-.5.5-.1.6-.6.5-1s-.4-.8-.7-.9c-.4-.1-.8-.1-1.3-.4-.5-.2-7.6-5.9-8.2-6.4-.1-.1-.3-.2-.4-.1s.1.2.1.3c.1.1 1.2 1.3 1.4 1.5.1.1.1.2 0 .4-.1.1-3.5 3.4-4.8 4.8-1.4 1.4-2.4 2.2-2.4 3.4 0 1.1.1 2 .1 2.2 0 .1-.2.1-.4.1-.4-.1-3.8-.4-5.6-.4-1.9-.1-3.2.1-4.1.4-.2.1-.3-.1-.3-.3 0-.3.2-1.5.5-2.2.2-.6.6-.8 1.1-.8.6-.1 3-.6 4.1-.8.6-.1.7-.3.7-.8s-.1-1.5-.1-2.1.1-1.1.4-1.6c.8-2 2.9-6.2 4.8-8.7.2-.3.4-.4.6-.3s1.3.9 1.4 1c.2.1.4 0 .4-.1-.6-.6-2.5-1.8-3.7-2.7-2.3-1.8-4.7-4.5-6.7-6.3-1-.9-2-1.6-2.9-1.8-.3-.1-.6-.1-.8-.1-.1 0-.1-.1-.1-.1 0-.1 0-.4-.2-.6s-.6-.3-.8-.3c-.4 0-1.1.1-1.4.1-.2.1-.3 0-.4-.1s-.1-.3-.2-.5c0-.1 0-.3.1-.4.2-.4.8-.9 1.2-1.2.4-.4.6-.4.9-.4.8-.1 1.9-.1 3 .1.8.2 1.4.5 2.2.9s5.3 2.7 5.9 3z" fill="url(#e)"/><path d="m39.7 34.6c.1.6-.3.9-.5 1.3s-.6.8-.9 1.1c-.3.4-.8.3-.8.3s2.6 1.3 4.1 2.1c.6.3 1.5 0 2.2-1.2.1-.3 1.1-2.2 1.3-2.9.2-.6.6-1.3 0-2.4s-2.2-3.2-2.9-4c-.4-.4-.8-.7-1.6-.7-.9-.1-2 .1-3.4.4-1.4.4-3.2 1.1-3.3 1.1s0 .1 0 .1c0 .1.2.4.2.4s.1.2.4.4c.3.1.6.2.6.2s.1 0 .1-.1c0 0 .3-.6 1.3-.8.6-.1.8-.1 1.1-.1s.6.1.8.4c.4.4.7.9.7 1.2.1.3 0 .6-.3.8-.3.1-1.1.4-1.5.4-.5.1-1 0-1.3-.1-.1 0-.1 0-.1 0-.1.1-.2.1-.4.3-.1 0-.1.1 0 .2s.7 1.1 1.1 1.4.6.1 1.1-.1c.4-.3.8-.6 1.2-.6.3 0 .7.4.8.9z" fill="url(#f)"/><path d="m38.8 32.3c-.3.1-1.1.3-1.5.4s-1 0-1.3-.1c-.1 0-.1 0-.1 0-.1.1-.2.1-.4.3-.1 0-.1.1 0 .1s.6 1.1 1 1.3.6.1 1.1-.1.8-.6 1.3-.5z" fill="url(#g)" opacity=".85"/><path d="m37.1 28.8c-1.3.4-3.1 1-3.2 1.1-.1 0 0 .1 0 .1s.2.4.2.4.1.2.4.4c.3.1.5.2.6.2s.1 0 .1-.1c0 0 .3-.6 1.3-.8.6-.1.8-.1 1.1-.1z" fill="url(#h)" opacity=".85"/><path d="m39.7 34.6c.1.6-.3 1-.5 1.3s-.6.8-.9 1.1c-.3.4-.7.2-.7.2s2.5 1.3 4 2c.6.3 1.5.1 2.1-1.1.1-.3 1.1-2.2 1.3-2.9z" fill="url(#i)" opacity=".85"/><path d="m27.3 44c-.1-.1-.1-.2.1-.4.1-.1.8-.6 1.2-.8.4-.1 1.9-.2 2.5-.3.2 0 2.5-.2 2.7-.2s.7.8 1.3 1.5c-.1 0-2.1-.1-3.8 0-1.6 0-3 .1-3.6.1-.1.1-.3.1-.4.1z" fill="url(#j)"/><path d="m27.3 44c-.1 0-.1-.1-.1-.1 0-.1.1-.1.1-.3.1-.1.8-.6 1.2-.8.4-.1 1.9-.2 2.5-.3.1 0 2.4-.2 2.7-.2.1 0 .1.1.2.1.1.1.2.2.3.4.2.3.5.6.8 1l.1.1h-.1c-.3 0-2-.1-3.5-.1-.1 0-.1 0-.2 0-1.6 0-3 .1-3.6.1-.1 0-.3 0-.4 0 .1.1 0 .1 0 .1zm.2 0h.4c.5-.1 2-.1 3.6-.1h.2c1.5 0 3.2 0 3.5.1-.4-.5-.8-1.1-1.1-1.3-.1-.1-.1-.1-.2-.1-.3 0-2.5.2-2.7.2-.6.1-2.1.1-2.5.3-.4.1-1.1.6-1.2.8-.1.1-.1.1-.1.2 0 .1 0 .1.1.1-.2-.2-.1-.2 0-.2z" fill="#7f7d7e"/><path d="m60.5 61.9c-.7-1.8-2.7-5.5-5.3-9.5-2.7-3.9-7.1-9.2-7.7-10s-.8-1.8.4-2.2c.8-.3 2.8-.7 3.6-.9s.8-.5.9-1.1-.1-3.9-.5-5.8c-.1-.4-.4-.7-.7-1-.3-.2-1.4-1.1-2-1.8-.7-.8-1-1.5-1.1-2.1 0 0 0-.1-.1-.2s-.1-.1-.2-.1c-1.2-.7-5.4-1.9-6.2-2-.6-.2-2.7.1-4.6 1.2-.6.4-.6.8-1 1s-1.3.4-2.2.8c-.5.2-.5.3-.4.6.1.1.4.7.6.7.1 0 .4-.1.6-.1.3-.1 2.1-.8 3.6-1.1 1.6-.4 3.4-.4 4 .3 1 1 2.6 3.2 3.1 4.2s.4 1.4.1 2.5c-.3.9-1.5 3.3-1.8 3.8-.4.5-.8.8-1.8.4-1.1-.4-4.9-2.5-5.8-2.9-.6-.3-2.9-1.5-4.8-2.4-.7-.4-1.2-.6-1.8-.7-1.3-.4-2.8-.2-3.4-.1-.3.1-.5.6-.5.7 0 .2.7.1 1.3.1.5 0 2.1.2 3 .6 1 .4 6 3.1 7.1 3.7 9.5 5.2 13.6 8.5 20.9 20.8.4.6.5 1.3 0 1.4-.8.2-3.9.8-4.8 1.1-.8.3-.9.4-1.1.7-.1.4-.4 1.3-.3 1.5 0 .1-.1.1.1.1.9 0 4.1 0 6.4.2.3 0 .3 0 .5-.3.2-.4 1.1-1.3 1.6-1.7.5 0 .3-.3.3-.4z" fill="url(#k)"/><path d="m58.2 60.1c-.1-.5-.5-1.3-1.3-2.5-.8-1.3-1.8-3.1-3.2-5-2.5-3.4-4.8-6.2-7.8-8.5-2.2-1.8-4.6-3.2-6.2-4.1-1.7-1-8.9-4.9-9.9-5.3s-1.8-.4-2.5-.5c-.5-.1-.9 0-1.3 0s-.3-.4-.2-.5c-.1.1-.3.6.1.6h1.5c.9.1 2 .4 2.7.6 1 .4 5.7 3.2 6.9 3.9 3.6 2 6.4 4 9 6 4 3.2 7.4 6.9 11.7 14.4.1.3.3.5.3.8 0 .4-.4.6-.5.6-.8.2-3.8.9-4.7 1.2-.8.3-.9.4-1 .8-.1.1-.1.8-.4 1.1-.1.2-.5.2-.8.2-.2 0-.4 0-.4-.2 0-.3.1-.9.3-1.3.1-.4.3-.7.6-.9.4-.2 1.6-.4 2.3-.6.7-.1.8-.5.7-1.1 0 .6-.2.7-.9.8s-2 .4-2.3.6c-.4.3-.6.6-.6.9-.2 1-.4 1.8-.4 2s.1.3.4.2c.2 0 .8-.1 1.8-.1.3 0 .3-.4.3-.7 0-.1 0-.5.1-.7s.2-.4.4-.4c.5-.1 3.4-.9 4.8-1.3.3-.3.6-.5.5-1z" fill="url(#l)"/><path d="m39.4 46.8c.2.1.6.4.8.5s.4.3.4.3c-1.9 2.4-4.7 6.4-5.6 8.2-.5.9-.5 1.3-.4 2.1 0 .8.1 1.8.1 2.2-.1.5-.4.6-.8.8-.5.1-3.2.6-3.8.8s-.8.5-.8 1c-.1.4-.1.7-.2.9s0 .4-.2.4c-.1 0-.6.1-.8.1s-.2 0-.2-.2.2-1.2.4-1.7c.1-.5.4-.8 1.1-1 .7-.1 3.4-.6 4-.7s.8-.4.8-1-.1-1.5-.1-2c0-.6 0-1 .2-1.5s1.2-2.7 2-4.2c1.1-2.1 2.5-4.3 2.8-4.6-.1-.4 0-.4.3-.4z" fill="url(#m)"/><path d="m37.8 62.1c0-.5.1-.9.5-1.4.4-.6 1.1-1.2 1.9-2 1.4-1.5 4.8-4.8 4.9-4.9s.1-.2 0-.4c-.4-.4-.5-.6-1.1-1.1-.4-.4-.6-.5-.6-.6 0 0-3.8 4.3-5 7.4-.5 1.1-.6 1.8-.6 2.3z" fill="url(#n)"/><path d="m25.7 34.2c.6 0 1.1 0 1.5.1.9.1 2 .4 2.7.6.4.1 1.2.6 2.2 1.2 1.8 1 3.9 2.2 4.7 2.7 2.7 1.5 4.9 2.9 6.9 4.5.7.6 1.4 1.1 2.1 1.7 4 3.2 7.3 6.8 11.6 14.4.1.3.2.6.2.8s-.2.5-.6.6z" fill="url(#o)"/><path d="m51.8 30.7c-.1 0-.3-.1-.4-.1-.6-.5-2.4-1.8-2.7-3-.1-.6.1-.3-.6-.6-.1-.1-.3-.1-.5-.2.1 0 .1.1.1.1.1.1.1.1.2.1.2.2.3.4.3.4.1.5.4 1.2 1.1 2 .6.6 1.8 1.6 2 1.8.1.1.3.2.4.4.1-.4.2-.8.4-1.3 0 .1-.1.1-.1.1.1.1 0 .3-.2.3z" fill="url(#q)"/><path d="m47.9 40.5c-.6.2-.6.4-.7.7 0 .3.1.7.4 1.1s1.8 2.1 3.4 4.2c.2.2.3.4.4.5-.1-.1-2.4-3-3.1-3.9-.2-.2-.4-.6-.4-1s.4-1.1 1-1.3c.9-.4 2.5-.8 2.9-1.1.4-.2.5-.3.5-.6-.2.1-.4.3-.7.4-.8.3-2.9.7-3.7 1z" fill="url(#r)"/><path d="m52.3 30.8c.4-1.1 1.3-2.5 2.9-2.5 2 0 2.9.8 3.2 2-.4-1.6-1.8-2.2-3.2-2.1-1.5 0-2.6 1.3-2.9 2.6z" fill="url(#s)"/><path d="m38.9 60.6c.3-.3 1.3-1.5 2.5-2.7-.4.4-.7.7-1 1-1.7 1.5-2.4 2-2.4 3.1 0 .6.1 2.1.1 2.3 0 .1 0 .3-.2.4-.1.1-.4.1-.4.1-.4 0-4.6-.4-6.1-.4s-2.7.1-3.5.4c-.1 0-.4 0-.6-.2-.1-.1-.1-.2-.1-.3 0 .3-.1.6-.1.8.3-.1.9-.1 1.7-.2 1.1-.1 2.2-.1 2.9-.1.8 0 6.5.3 6.6.3-.1-.4-.1-1.5-.1-2.2 0-.1 0-.1 0-.6.1-.5.2-1.2.7-1.7z" fill="url(#u)"/><path d="m50.6 57.9c.4.2.6.4 1 .5-.3-.2-.6-.5-1.2-.8-.8-.6-1.7-1.3-2.7-2.1-.8-.6-1.6-1.3-2.3-1.8 0 .2-.1.4-.2.4.1 0 .3.1.4.2.4.2 4.2 3 5 3.6z" fill="url(#v)"/><path d="m60.9 62.9c.1-.1.2-.1.2-.2s-.1-.2-.1-.4c-.8-2.2-3.8-7.8-6.1-10.9-.2-.3-.4-.7-.4-1 0-.4.2-.6.4-.8.1-.1.6-.5 1.1-1-.8.6-1.4 1.1-1.4 1.3-.1.1-.1.2-.1.4s.1.6.4 1.1c.2.3.4.5.6.8 2.7 4 4.6 7.8 5.3 9.6.1.4.1.6 0 .8 0 0-1.4 1.5-1.6 1.7-.1.1-.1.2-.2.3s-.4.1-.6.1c-2.1-.2-4.3-.3-5.5-.3-1.5 0-2.3.1-2.8.1-.3 0-.4-.1-.5-.1 0 .2 0 .4-.1.4.9-.1 2.1-.2 3.4-.2h1.3c2.2.1 4.8.3 4.8.3-.1.1 1.2-1.4 1.9-2z" fill="url(#w)"/><path d="m38.7 46.6c-.6-.5-1.3-.9-2-1.3-.8-.6-1.6-.9-1.9-.9-2.5 0-2.5 0-4 0-1.2 0-2.2.1-2.7.1-.9.1-1.3.1-1.4.2-.1 0-.1 0-.1 0s.1.1.1.1.1 0 .1-.1c.6-.1 1.8-.2 3.2-.2s2.9 0 3.8.1c.7 0 1.8.1 2.5.6.7.4 2.3 1.5 2.4 1.4z" fill="url(#x)"/><path d="m31 39.3c-1-.9-2.5-1.9-3.1-2-.2-.1-.6-.1-.8-.1s-.2-.3-.3-.3c0 .1 0 .4.1.4s.7-.1 1.2.1c.6.4 2.3 1.5 2.5 1.8.4.3.7.3.4.1z" fill="url(#y)"/><path d="m25.6 44.1c.2 0 .3 0 .4.1-.1-.2-.2-.2-.5-.2-.4 0-1.6.6-1.8.7-.3.1-.4.1-.6 0 .1.2.2.3.4.3 0-.2 1.4-.9 2.1-.9z" fill="url(#z)"/><path d="m38.9 26.6c.2 0 .4-.1.4.1v.3s-.1.1-.1.1c-.2.1-1.5.5-1.7.6-.1.1-.3 0-.3-.1s0-.4.1-.5.1-.1.2-.2c.1 0 1.1-.2 1.4-.3z" fill="url(#A)"/><path d="m38.9 26.7c.1 0 .2 0 .2.1s0 .1 0 .1c0 .1 0 .1-.1.1-.1.1-1.1.4-1.3.5s-.3.1-.4-.1c0-.1 0-.2.1-.3s.1-.1.1-.1c.3 0 1.1-.2 1.4-.3z" fill="#231f20"/><path d="m43.9 38.6c.1-.3 1.1-2.4 1.4-3 .1-.4.4-.8.4-1.3 0-.4-.1-.8-.3-1.3-.6-1.2-2.3-3.4-3-4.2-.6-.7-1.1-.8-2.1-.8-2.6.1-4.8 1.1-6 1.7.9-.3 3.1-1.2 5.5-1.3 1.3-.1 1.9 0 2.4.6.7.8 2.4 3 2.9 4.1.2.4.4.8.3 1.2-.1.5-.2.9-.4 1.3-.3.6-1.2 2.5-1.3 2.8-.7 1.2-1.3 1.1-2 1 .1 0 .4.1.6.3.6.2 1.2-.3 1.6-1.1z" fill="url(#B)"/><path d="m40.8 47.8s-.1-.1-.3-.2c-.4.4-2.1 2.6-3.3 4.6-.9 1.5-2.2 3.6-2.5 4.1-.2.4-.3.8-.3 1.3 0 0 .1 2.3.1 2.4 0 .3-.1.6-.2.7-.1.2-.4.3-.7.4-.6.1-3.1.5-3.8.6s-1 .5-1.1.9-.2.9-.2 1.1v.1c0 .3.1.2.1.2s2.9-.2 4.7-.1 4.2.4 4.2.4-2.5-.5-4.3-.6-4.1.1-4.1 0-.1-.2-.1-.4c0-.1.1-.3.1-.5.1-.4.3-.8 1-1 .6-.1 3.2-.6 3.6-.7.5-.1.8-.3.8-.7 0-.1 0-.4 0-.6 0-.5-.1-1.8-.1-1.9 0-.8.1-1.3.6-2.1.8-1.4 3.9-6.1 5.5-7.7.2-.1.3-.3.3-.3z" fill="url(#C)"/><g fill="#231f20"><path d="m11.3 70v5.2h1.4v-1.6h1.3c2.7 0 4.1-.9 4.1-1.9s-1.5-1.7-4-1.7zm1.4 3.1v-2.5h1.1c1.2 0 2.7.2 2.7 1.2 0 .7-.5 1.3-2.9 1.3z"/><path d="m26.3 75.2v-.7h-3.5c-.8 0-1-.3-1-.9v-.8h4.1v-.7h-4.1v-1.6h4.3v-.5h-5.8v3.6c0 1 .4 1.5 1.7 1.5h4.3z"/><path d="m35.4 70h-1.4v4.4c-.4.1-.9.3-1.7.3-1.1 0-2.2-.3-2.2-1.2v-3.5h-1.4v3.5c0 1.4 1.4 1.9 3 1.9 1.5 0 2.7-.3 3.7-.7z"/><path d="m39.4 72.7c0-1.4 1.2-2.1 2.7-2.1 1.2 0 2.2.4 3.1.7v-.9c-.9-.3-1.8-.4-3.1-.4-2.4 0-4.3 1.1-4.3 2.8 0 1.8 2 2.7 4.3 2.7 1.2 0 2.4-.2 3.2-.4v-2.1h-1.4v1.5c-.5.2-.9.3-1.7.3-1.6 0-2.8-.9-2.8-2.1"/><path d="m53.9 75.2v-.7h-3.5c-.8 0-1-.3-1-.9v-.8h4.1v-.7h-4.1v-1.6h4.3v-.5h-5.8v3.6c0 1 .4 1.5 1.7 1.5h4.3z"/><path d="m60.1 69.9c-2.4 0-4.4 1.1-4.4 2.8 0 1.8 2 2.7 4.4 2.7s4.3-1 4.3-2.7-1.9-2.8-4.3-2.8m0 4.9c-1.6 0-2.7-.8-2.7-2.1 0-1.4 1.2-2.1 2.7-2.1s2.7.7 2.7 2.1c0 1.3-1.1 2.1-2.7 2.1"/><path d="m65.6 70.8h2.9v4.4h1.4v-4.4h2.8v-.8h-7.1z"/></g></svg>